<?xml version="1.0" encoding="UTF-8"?>
<svg version="1.1" xmlns="http://www.w3.org/2000/svg" width="100" height="100">
<path d="M0 0 C33 0 66 0 100 0 C100 33 100 66 100 100 C67 100 34 100 0 100 C0 67 0 34 0 0 Z " fill="#FDFEFE" transform="translate(0,0)"/>
<path d="M0 0 C1.24245483 -0.00430527 1.24245483 -0.00430527 2.51000977 -0.00869751 C4.25830775 -0.01073568 6.00662867 -0.00522306 7.75488281 0.00732422 C10.42825393 0.02338196 13.1001133 0.00746779 15.7734375 -0.01171875 C17.47396166 -0.00973627 19.17448489 -0.00589251 20.875 0 C21.67301025 -0.00607269 22.47102051 -0.01214539 23.29321289 -0.0184021 C26.56289288 0.02295782 29.01809102 0.17900023 31.94140625 1.70849609 C33.4375 3.3984375 33.4375 3.3984375 33.9375 6.8359375 C33.4375 10.3984375 33.4375 10.3984375 32 12.8359375 C28.10919577 15.20837911 24.87473679 15.20835436 20.4375 14.3984375 C14.62714927 12.18788301 9.54477708 8.88633404 4.4375 5.3984375 C1.55538698 4.43773316 -0.26100044 4.29261867 -3.25 4.3359375 C-4.05824219 4.34496094 -4.86648437 4.35398438 -5.69921875 4.36328125 C-6.31410156 4.37488281 -6.92898437 4.38648438 -7.5625 4.3984375 C-7.94468767 6.05458407 -8.27645102 7.72300774 -8.5625 9.3984375 C-6.69317841 11.26775909 -3.44333064 10.66265341 -0.9375 10.7734375 C5.79609357 11.22508097 10.51824935 11.66495734 15.5859375 16.41015625 C18.19128677 20.6149921 18.02614339 24.11140515 17.9375 28.9609375 C17.95296875 29.81107422 17.9684375 30.66121094 17.984375 31.53710938 C17.95960017 35.48559783 17.94568001 37.69323007 15.59375 40.95703125 C12.63625824 42.9340502 10.92492447 42.97967491 7.4375 42.3984375 C4.73818383 40.30357317 3.56597443 39.15022016 2.98339844 35.74121094 C3.01481934 34.26442871 3.01481934 34.26442871 3.046875 32.7578125 C3.05976562 31.68789063 3.07265625 30.61796875 3.0859375 29.515625 C3.11945312 28.40445313 3.15296875 27.29328125 3.1875 26.1484375 C3.20554687 25.02179687 3.22359375 23.89515625 3.2421875 22.734375 C3.28929778 19.95486854 3.35506639 17.1770841 3.4375 14.3984375 C2.61765625 14.44484375 1.7978125 14.49125 0.953125 14.5390625 C-0.12453125 14.57515625 -1.2021875 14.61125 -2.3125 14.6484375 C-3.91351563 14.71804687 -3.91351563 14.71804687 -5.546875 14.7890625 C-8.5625 14.3984375 -8.5625 14.3984375 -10.921875 12.60546875 C-13.29203879 9.41703413 -13.12460141 7.26288472 -12.5625 3.3984375 C-9.12950257 -0.47937063 -4.81445184 -0.03663698 0 0 Z " fill="#102BAF" transform="translate(39.5625,28.6015625)"/>
<path d="M0 0 C2.125 0.375 2.125 0.375 4 1 C4 1.66 4 2.32 4 3 C5.32 3 6.64 3 8 3 C9.95931839 9.9042648 9.01855969 16.99740213 8 24 C3.375 26.125 3.375 26.125 0 25 C-0.66 24.67 -1.32 24.34 -2 24 C-2.05787784 20.37506666 -2.0935542 16.75025143 -2.125 13.125 C-2.14175781 12.09246094 -2.15851562 11.05992188 -2.17578125 9.99609375 C-2.18222656 9.00996094 -2.18867187 8.02382813 -2.1953125 7.0078125 C-2.20578613 6.09660645 -2.21625977 5.18540039 -2.22705078 4.24658203 C-2 2 -2 2 0 0 Z " fill="#0125CB" transform="translate(47,44)"/>
<path d="M0 0 C3.77068832 -0.086985 7.54111932 -0.14038579 11.3125 -0.1875 C12.38435547 -0.21263672 13.45621094 -0.23777344 14.56054688 -0.26367188 C15.58857422 -0.27333984 16.61660156 -0.28300781 17.67578125 -0.29296875 C19.0975769 -0.31653442 19.0975769 -0.31653442 20.5480957 -0.34057617 C23 0 23 0 24.84448242 1.32299805 C26 3 26 3 25.8125 6.125 C25.544375 7.07375 25.27625 8.0225 25 9 C21.30723866 10.84638067 17.03883185 10.34689353 13 10 C8.41815015 8.36362505 7.09339386 7.18678771 5 3 C2.44480079 2.18828772 2.44480079 2.18828772 0 2 C0 1.34 0 0.68 0 0 Z " fill="#0125CB" transform="translate(46,31)"/>
<path d="M0 0 C6.30223238 0.07024781 10.80774606 2.39572145 15.4375 6.5625 C15.9325 7.14 16.4275 7.7175 16.9375 8.3125 C13.9375 10.3125 13.9375 10.3125 12.1953125 9.96484375 C11.45023438 9.74957031 10.70515625 9.53429688 9.9375 9.3125 C6.31148515 9.0487137 2.6858838 8.86881397 -0.9453125 8.69140625 C-4.0625 8.3125 -4.0625 8.3125 -6.0625 6.3125 C-5.45370507 1.3203816 -4.99481426 0.16278125 0 0 Z " fill="#EDF2FD" transform="translate(36.0625,31.6875)"/>
<path d="M0 0 C0.33 0 0.66 0 1 0 C1.3403125 1.423125 1.3403125 1.423125 1.6875 2.875 C2.66416974 6.11296271 2.66416974 6.11296271 5.1875 7.1875 C8.36503132 8.10545349 11.01094458 8.19756166 14.3125 8.125 C15.38113281 8.10695313 16.44976562 8.08890625 17.55078125 8.0703125 C18.76314453 8.03550781 18.76314453 8.03550781 20 8 C20.33 6.68 20.66 5.36 21 4 C21.1875 6.375 21.1875 6.375 21 9 C16.9027251 11.7315166 13.8132482 11.73309473 9 11 C3.22176357 8.8223163 -1.98284751 5.56481887 -7 2 C-3.98968256 1.06576355 -3.13349732 0.95550089 0 2 C0 1.34 0 0.68 0 0 Z " fill="#1D37B6" transform="translate(51,32)"/>
<path d="M0 0 C0.99 1.32 1.98 2.64 3 4 C0.44541232 8.7898519 -1.74413989 11.0423321 -6.9609375 12.7421875 C-10.25701937 13.15893348 -12.33451178 11.79920455 -15 10 C-15 9.34 -15 8.68 -15 8 C-13.86111328 8.05220703 -13.86111328 8.05220703 -12.69921875 8.10546875 C-11.70535156 8.13253906 -10.71148437 8.15960938 -9.6875 8.1875 C-8.70136719 8.22230469 -7.71523437 8.25710937 -6.69921875 8.29296875 C-3.98965634 8.22892015 -3.98965634 8.22892015 -2.1875 6.65625 C-0.65100373 4.51324205 -0.34959805 2.5870256 0 0 Z " fill="#E8F3FE" transform="translate(73,34)"/>
<path d="M0 0 C1.38294718 0.01329757 2.76582404 0.03715018 4.1484375 0.0703125 C4.85484375 0.07933594 5.56125 0.08835937 6.2890625 0.09765625 C8.03399848 0.12123647 9.77876045 0.15710789 11.5234375 0.1953125 C11.1934375 1.1853125 10.8634375 2.1753125 10.5234375 3.1953125 C9.38455078 3.12570313 9.38455078 3.12570313 8.22265625 3.0546875 C7.22878906 3.01859375 6.23492187 2.9825 5.2109375 2.9453125 C3.73173828 2.87570313 3.73173828 2.87570313 2.22265625 2.8046875 C-0.62059944 2.92627822 -0.62059944 2.92627822 -2.33203125 5.2109375 C-2.70972656 5.86578125 -3.08742188 6.520625 -3.4765625 7.1953125 C-4.1365625 5.5453125 -4.7965625 3.8953125 -5.4765625 2.1953125 C-3.4765625 0.1953125 -3.4765625 0.1953125 0 0 Z " fill="#1E3AB5" transform="translate(32.4765625,29.8046875)"/>
<path d="M0 0 C0.33 0 0.66 0 1 0 C1.75 3.25 1.75 3.25 2 7 C0.4375 9.4375 0.4375 9.4375 -2 11 C-5.25 11.25 -5.25 11.25 -8 11 C-4.93882432 8.37613513 -4.26826873 8 0 8 C0 5.36 0 2.72 0 0 Z " fill="#1C34B3" transform="translate(55,60)"/>
</svg>
