<svg width="310" height="310" viewBox="-30 0 310 310" fill="none" xmlns="http://www.w3.org/2000/svg">
<path d="M221.74 259.537H194.023V309.933H166.306V259.537H194.022V209.142H166.305V259.537H138.588V209.142H110.87V259.537H83.1533V309.933H55.4355V259.537H83.1523V209.142H55.4346V259.537H27.7178V181.424H221.74V259.537ZM138.588 309.933H110.87V259.537H138.588V309.933ZM27.7178 181.424H0V55.4355H27.7178V181.424ZM249.458 181.424H221.74V55.4355H249.458V181.424ZM86.9326 136.067H59.2148V80.6328H86.9326V136.067ZM190.243 136.067H162.525V80.6328H190.243V136.067ZM55.4346 55.4355H27.7178V27.7178H55.4346V55.4355ZM194.023 27.7178H221.74V55.4355H194.022V27.7178H55.4355V0H194.023V27.7178Z" fill="url(#paint0_linear_17_109)"/>
<defs>
<linearGradient id="paint0_linear_17_109" x1="124.729" y1="0" x2="124.729" y2="309.933" gradientUnits="userSpaceOnUse">
<stop/>
<stop offset="1"/>
</linearGradient>
</defs>
</svg>
